<svg width="56" height="56" viewBox="10 11 176 184" fill="none" xmlns="http://www.w3.org/2000/svg">
  <g>
    <path d="M0 0 C0.9767568969726597 -0.0051109313964836645 1.9535137939453122 -0.010221862792969105 2.959869384765625 -0.0154876708984375 C6.170249728266299 -0.029321035027145115 9.380413806933632 -0.028431243343213453 12.5908203125 -0.026123046875 C14.837504869051472 -0.03001409461806226 17.084188695651534 -0.03434960555249589 19.33087158203125 -0.0391082763671875 C24.034732932617644 -0.04655757681295469 28.738519215812943 -0.04628904829665359 33.4423828125 -0.041015625 C39.4451821973645 -0.03523023450023288 45.44767210440676 -0.05213603284568791 51.45042037963867 -0.07536029815673828 C56.09008556709263 -0.09015534938596659 60.72967727500652 -0.09096136576587455 65.3693618774414 -0.08785057067871094 C67.5811550043403 -0.08836112760771542 69.79295253372808 -0.09354854124869583 72.00472259521484 -0.10366249084472656 C89.66133563156947 -0.17448418287034073 104.47933141500144 0.42862736089619524 118.1689453125 12.899658203125 C125.93084563821427 21.164353691638567 128.35004212241424 30.3433751559362 129.9189453125 41.274658203125 C89.73585373413474 56.80305593454051 89.73585373413474 56.80305593454051 70.1064453125 63.837158203125 C69.41284912109376 64.08884765625001 68.7192529296875 64.340537109375 68.004638671875 64.599853515625 C65.16182034795447 65.60596872129005 62.960859248084304 66.274658203125 59.9189453125 66.274658203125 C60.08394531249999 67.759658203125 60.08394531249999 67.759658203125 60.9189453125 75.274658203125 C61.456846923828124 75.39623291015624 61.456846923828124 75.39623291015624 64.178955078125 76.011474609375 C69.84827608012445 77.43266891149419 75.27855042248359 79.47020661834401 80.7587890625 81.485595703125 C81.88031875610352 81.89500396728516 83.00184844970704 82.30441223144531 84.15736389160156 82.72622680664063 C86.52058783414446 83.59001024301249 88.88307829999994 84.45580274455793 91.244873046875 85.323486328125 C94.83934412522976 86.64337863513663 98.4365546899244 87.9555779140025 102.0341796875 89.266845703125 C104.3383839905004 90.11013722677723 106.64242590536193 90.95387261826467 108.9462890625 91.798095703125 C109.47923332214356 91.99243698120117 109.47923332214356 91.99243698120117 112.17625427246094 92.97592163085938 C118.19872748174393 95.19380725774332 124.0957780530396 97.57487255645633 129.9189453125 100.274658203125 C130.02131450037876 106.87242200081391 130.09081242582695 113.46997711751082 130.138671875 120.068359375 C130.15864724528535 122.30769503900581 130.18583713131605 124.54697949171316 130.220703125 126.7861328125 C130.50088560578854 145.25757489154506 129.7354386205149 159.86236449586818 116.6064453125 174.024658203125 C106.39421950762102 183.6782283294001 93.8305501525434 185.78693780432627 80.2314453125 185.462158203125 C79.13638671875 185.448623046875 78.041328125 185.435087890625 76.9130859375 185.421142578125 C74.24783117738923 185.38622657690084 71.58367027463004 185.337195375783 68.9189453125 185.274658203125 C66.12921428999631 165.81665995819358 63.84894107854383 146.30914276464625 61.6689453125 126.774658203125 C61.53252624511718 125.56187194824219 61.39610717773438 124.34908569335937 61.25555419921875 123.09954833984375 C60.863474994727994 119.6062483434273 60.47627930245727 116.11244423120372 60.0908203125 112.618408203125 C59.97225677490235 111.56324005126953 59.85369323730468 110.50807189941406 59.731536865234375 109.42092895507813 C59.214974715238796 104.68202006706633 58.766257392685276 100.05073633492975 58.9189453125 95.274658203125 C60.0739453125 94.944658203125 60.0739453125 94.944658203125 65.9189453125 93.274658203125 C66.2489453125 89.314658203125 66.5789453125 85.354658203125 66.9189453125 81.274658203125 C58.50394531250001 81.43965820312499 58.50394531250001 81.43965820312499 15.9189453125 82.274658203125 C16.083945312499992 83.924658203125 16.083945312499992 83.924658203125 16.9189453125 92.274658203125 C19.228945312500002 93.264658203125 21.538945312500005 94.254658203125 23.9189453125 95.274658203125 C21.78349372265859 116.68284792964995 19.399226225466805 138.05095235882357 16.7314453125 159.399658203125 C16.599296264648444 160.4632958984375 16.467147216796874 161.52693359375 16.33099365234375 162.622802734375 C15.953302041115577 165.65559774399472 15.571739624691759 168.68787524441655 15.1884765625 171.719970703125 C15.075074310302739 172.6287698364258 14.961672058105478 173.53756896972655 14.844833374023438 174.47390747070313 C14.73756423950195 175.31323822021486 14.630295104980462 176.15256896972656 14.519775390625 177.017333984375 C14.427471466064446 177.74655059814452 14.335167541503907 178.47576721191408 14.240066528320313 179.22708129882813 C13.917368716013755 181.28471111272293 13.4554303064334 183.26314482995616 12.9189453125 185.274658203125 C9.127429482390937 185.36294881536185 5.336183662790525 185.41547766071227 1.5439453125 185.462158203125 C0.48304687499999943 185.487294921875 -0.5778515625000011 185.512431640625 -1.6708984375 185.538330078125 C-14.588533406367674 185.6572040195563 -25.35228486652038 181.86321294953672 -34.8935546875 172.962158203125 C-43.95163326840105 163.26468584004272 -46.5571386617269 151.9229613276529 -46.3740234375 139.020751953125 C-46.369778594970704 137.87929214477538 -46.36553375244141 136.73783233642578 -46.36116027832031 135.56178283691406 C-46.344476196909426 131.94499310688266 -46.30684235144907 128.3287772273459 -46.2685546875 124.712158203125 C-46.25349461197793 122.24797358786287 -46.23980853118209 119.78378016823689 -46.2275390625 117.319580078125 C-46.19460634627989 111.30441300312619 -46.14450997361596 105.28957662031638 -46.0810546875 99.274658203125 C-35.62344400215318 95.34707107422419 -25.16049742458482 91.4341191381814 -14.689453125 87.54248046875 C-13.196790081591367 86.98754529049981 -11.704277700642685 86.43220469724895 -10.2119140625 85.87646484375 C-5.860000116947319 84.25587962666701 -1.505725531919225 82.64196290244024 2.8521728515625 81.03753662109375 C4.227008414191602 80.53006306084033 5.600958660294253 80.0201843781075 6.9739990234375 79.50787353515625 C8.898792357468594 78.78998428929158 10.826404181303047 78.08023314435651 12.7548828125 77.372314453125 C13.851069335937495 76.96634033203125 14.947255859374991 76.5603662109375 16.07666015625 76.14208984375 C18.9189453125 75.274658203125 18.9189453125 75.274658203125 22.9189453125 75.274658203125 C22.9189453125 72.304658203125 22.9189453125 69.334658203125 22.9189453125 66.274658203125 C21.677578124999997 66.031025390625 20.436210937499993 65.787392578125 19.1572265625 65.536376953125 C13.283910577991406 64.22826578031135 7.740117238815216 62.1760821584308 2.1064453125 60.087158203125 C-0.11589911576766099 59.27380569786561 -2.3385596839892315 58.46131650945924 -4.5615234375 57.649658203125 C-5.660288085937502 57.247470703125 -6.759052734374997 56.84528320312501 -7.89111328125 56.430908203125 C-11.653903079628414 55.06701929411534 -15.43158885460376 53.750926995263114 -19.21533203125 52.446533203125 C-23.17882950501597 51.07900613905362 -27.132145735945063 49.683706516802005 -31.0810546875 48.274658203125 C-31.837895507812497 48.005244140625 -32.594736328125 47.735830078125 -33.37451171875 47.458251953125 C-35.5134485446915 46.68672518689561 -37.641927434563584 45.89190438743053 -39.7685546875 45.087158203125 C-40.36861328125 44.863505859374996 -40.36861328125 44.863505859374996 -43.4052734375 43.731689453125 C-46.0810546875 42.274658203125 -46.0810546875 42.274658203125 -47.0458984375 40.419189453125 C-47.21031818090169 30.389585105621947 -41.660764604888755 19.707373448330202 -35.0185546875 12.524658203125 C-25.10569013512172 3.1900440829687877 -13.258102786883967 -0.03624727198094568 0 0 Z M36.3720703125 45.723876953125 C35.69144531250001 46.242724609375 35.0108203125 46.761572265625 34.3095703125 47.296142578125 C33.6031640625 47.845927734374996 32.8967578125 48.395712890625 32.1689453125 48.962158203125 C30.778904456983398 50.029325762910595 29.38828392337652 51.095738707951725 27.9970703125 52.161376953125 C27.320957031250003 52.6813525390625 26.644843750000007 53.201328125 25.9482421875 53.737060546875 C22.984240252154024 55.98288395746317 19.95746592543901 58.13098986493898 16.9189453125 60.274658203125 C21.506078937314015 64.86179182793902 31.043484000113253 63.4048155549695 37.1357421875 63.411376953125 C38.36357421875 63.40750976562501 39.591406250000006 63.403642578125 40.8564453125 63.399658203125 C42.08041015625 63.40352539062499 43.30437499999999 63.407392578125 44.5654296875 63.411376953125 C62.80184616064217 63.39175735498283 62.80184616064217 63.39175735498283 65.9189453125 60.274658203125 C64.92894531249999 59.550205078125 63.93894531250001 58.82575195312501 62.9189453125 58.079345703125 C62.282470703125 57.61310791015626 61.64599609375 57.146870117187504 60.990234375 56.66650390625 C59.60736932112695 55.65380463942856 58.22390356421789 54.6419251458137 56.83984375 53.630859375 C53.242173289751406 50.99822013129132 49.68427817360342 48.3293821455271 46.1689453125 45.587158203125 C41.8882181023078 42.54125614971901 40.317136051078236 42.678590471087254 36.3720703125 45.723876953125 Z" fill="#3A52B8" transform="translate(57.0810546875,10.725341796875)"/>
  </g>
</svg>
